<svg width="1504" height="1486" viewBox="0 0 1504 1486" fill="none" xmlns="http://www.w3.org/2000/svg">
<path d="M1305.76 1485.67H197.326C88.3712 1485.67 0 1398.33 0 1290.63V195.04C0 87.3475 88.3712 0 197.326 0H1305.76C1414.71 0 1503.08 87.3475 1503.08 195.04V1290.63C1502.93 1398.48 1414.71 1485.67 1305.76 1485.67Z" fill="#C3FA15"/>
<path d="M1032.88 636.184H1175.21C1208.51 636.184 1235.61 609.396 1235.61 576.485V391.415C1235.61 358.504 1208.51 331.716 1175.21 331.716H987.971C954.674 331.716 927.572 358.504 927.572 391.415V537.45C927.572 570.361 900.469 597.15 867.172 597.15H724.847C691.55 597.15 664.447 623.938 664.447 656.85V841.919C664.447 874.83 691.55 901.618 724.847 901.618H867.172C900.469 901.618 927.572 928.406 927.572 961.318V1095.26C927.572 1128.17 954.674 1154.96 987.971 1154.96H1175.21C1208.51 1154.96 1235.61 1128.17 1235.61 1095.26V910.19C1235.61 877.279 1208.51 850.491 1175.21 850.491H1032.88C999.586 850.491 972.484 823.703 972.484 790.791V695.731C972.329 662.972 999.432 636.184 1032.88 636.184Z" fill="#03003A"/>
<path d="M513.763 331.716H326.526C293.229 331.716 266.126 358.504 266.126 391.415V576.485C266.126 609.396 293.229 636.184 326.526 636.184H513.763C547.06 636.184 574.163 609.396 574.163 576.485V391.415C574.163 358.504 547.06 331.716 513.763 331.716Z" fill="#03003A"/>
<path d="M513.763 850.646H326.526C293.229 850.646 266.126 877.433 266.126 910.345V1095.41C266.126 1128.33 293.229 1155.11 326.526 1155.11H513.763C547.06 1155.11 574.163 1128.33 574.163 1095.41V910.345C574.163 877.433 547.06 850.646 513.763 850.646Z" fill="#03003A"/>
</svg>
